# xmcd
#
# Track frame offsets:
# 150
# 18940
# 35351
# 54443
# 77544
# 94906
# 112236
# 134193
# 156330
# 179207
# 201259
#
# Disc length: 2966 seconds
#
#
# Revision: 0
# Processed by: cddbd v1.5.1PL0 Copyright (c) Steve Scherf et al.
# Submitted via: HACP 1.20
#
DISCID=9e0b940b
DTITLE=Eric Clapton - August
DYEAR=1900
DGENRE=
TTITLE0=It's in the Way That You Use It
TTITLE1=Run
TTITLE2=Tearing Us Apart
TTITLE3=Bad Influence
TTITLE4=Walk Away
TTITLE5=Hung Up on Your Love
TTITLE6=Take a Chance
TTITLE7=Hold On
TTITLE8=Miss You
TTITLE9=Holy Mother
TTITLE10=Behind the Mask
EXTD=
EXTT0=
EXTT1=
EXTT2=
EXTT3=
EXTT4=
EXTT5=
EXTT6=
EXTT7=
EXTT8=
EXTT9=
EXTT10=
PLAYORDER=
